<svg width="30" height="28" viewBox="0 0 30 28" fill="none" xmlns="http://www.w3.org/2000/svg">
<path d="M4.5 4.625C4.5 2.55371 5.84531 0.875 7.5 0.875H27C28.6547 0.875 30 2.55371 30 4.625V17.75C30 19.8184 28.6547 21.5 27 21.5H7.5C5.84531 21.5 4.5 19.8184 4.5 17.75V4.625ZM7.5 17.75H10.5C10.5 15.6816 9.15469 14 7.5 14V17.75ZM7.5 4.625V8.375C9.15469 8.375 10.5 6.69336 10.5 4.625H7.5ZM27 14C25.3453 14 24 15.6816 24 17.75H27V14ZM24 4.625C24 6.69336 25.3453 8.375 27 8.375V4.625H24ZM17.25 6.5C15.1781 6.5 13.5 8.59766 13.5 11.1875C13.5 13.7773 15.1781 15.875 17.25 15.875C19.3219 15.875 21 13.7773 21 11.1875C21 8.59766 19.3219 6.5 17.25 6.5ZM2.25 20.0938C2.25 22.4258 3.76125 24.3125 5.625 24.3125H24.375C24.9984 24.3125 25.5 24.9395 25.5 25.7188C25.5 26.498 24.9984 27.125 24.375 27.125H5.625C2.51859 27.125 0 23.9785 0 20.0938V6.03125C0 5.25195 0.503906 4.625 1.125 4.625C1.74609 4.625 2.25 5.25195 2.25 6.03125V20.0938Z" fill="#FAFAFA"/>
</svg>
