<svg width="58" height="59" viewBox="0 0 58 59" fill="none" xmlns="http://www.w3.org/2000/svg">
<circle cx="25" cy="33.5" r="25" fill="#FEDDDD" fill-opacity="0.7"/>
<circle cx="33" cy="25" r="25" fill="#4B6D9B"/>
<path d="M22.5 17C22.5 15.343 23.8453 14 25.5 14H45C46.6547 14 48 15.343 48 17V27.5C48 29.1547 46.6547 30.5 45 30.5H25.5C23.8453 30.5 22.5 29.1547 22.5 27.5V17ZM25.5 27.5H28.5C28.5 25.8453 27.1547 24.5 25.5 24.5V27.5ZM25.5 17V20C27.1547 20 28.5 18.6547 28.5 17H25.5ZM45 24.5C43.3453 24.5 42 25.8453 42 27.5H45V24.5ZM42 17C42 18.6547 43.3453 20 45 20V17H42ZM35.25 18.5C33.1781 18.5 31.5 20.1781 31.5 22.25C31.5 24.3219 33.1781 26 35.25 26C37.3219 26 39 24.3219 39 22.25C39 20.1781 37.3219 18.5 35.25 18.5ZM20.25 29.375C20.25 31.2406 21.7613 32.75 23.625 32.75H42.375C42.9984 32.75 43.5 33.2516 43.5 33.875C43.5 34.4984 42.9984 35 42.375 35H23.625C20.5186 35 18 32.4828 18 29.375V18.125C18 17.5016 18.5039 17 19.125 17C19.7461 17 20.25 17.5016 20.25 18.125V29.375Z" fill="#FAFAFA"/>
</svg>
