<svg width="53" height="59" viewBox="0 0 53 59" fill="none" xmlns="http://www.w3.org/2000/svg">
<circle cx="28" cy="25.25" r="25" fill="#F78E8E"/>
<circle cx="18" cy="40.25" r="18" fill="#4B6D9B"/>
<g clip-path="url(#clip0_405_362)">
<path d="M36.318 16.732L28.3539 14.018C28.2578 13.9852 28.1289 13.9688 28 13.9688C27.8711 13.9688 27.7422 13.9852 27.6461 14.018L19.682 16.732C19.4875 16.7977 19.3281 17.0227 19.3281 17.2289V28.5352C19.3281 28.7414 19.4617 29.0133 19.6234 29.1422L27.7023 35.4375C27.7844 35.5008 27.8898 35.5336 27.9977 35.5336C28.1055 35.5336 28.2133 35.5008 28.293 35.4375L36.3719 29.1422C36.5336 29.0156 36.6672 28.7437 36.6672 28.5352V17.2289C36.6719 17.0227 36.5125 16.8 36.318 16.732ZM32.2773 20.7352L27.2945 27.5953C27.2595 27.6433 27.2137 27.6823 27.1607 27.7091C27.1078 27.736 27.0492 27.75 26.9898 27.75C26.9305 27.75 26.8719 27.736 26.819 27.7091C26.766 27.6823 26.7202 27.6433 26.6852 27.5953L23.7227 23.5172C23.6336 23.393 23.7227 23.2195 23.875 23.2195H25.1688C25.2883 23.2195 25.4031 23.2781 25.4734 23.3742L26.9898 25.4602L30.5266 20.5898C30.5969 20.4937 30.7094 20.4352 30.8312 20.4352H32.125C32.2773 20.4375 32.3664 20.6109 32.2773 20.7352Z" fill="white"/>
</g>
<defs>
<clipPath id="clip0_405_362">
<rect width="24" height="24" fill="white" transform="translate(16 13.25)"/>
</clipPath>
</defs>
</svg>
