<svg width="58" height="59" viewBox="0 0 58 59" fill="none" xmlns="http://www.w3.org/2000/svg">
<circle cx="25" cy="33.5" r="25" fill="#FEDDDD" fill-opacity="0.7"/>
<circle cx="33" cy="25" r="25" fill="#4B6D9B"/>
<g clip-path="url(#clip0_405_368)">
<path fill-rule="evenodd" clip-rule="evenodd" d="M33.0204 14.75C30.7619 14.75 28.7039 15.496 27.4864 16.1055C27.3764 16.1605 27.2739 16.2145 27.1784 16.2665C26.9894 16.3695 26.8284 16.4655 26.7004 16.55L28.0854 18.589L28.7374 18.8485C31.2854 20.134 34.7024 20.134 37.2509 18.8485L37.9909 18.4645L39.3009 16.55C39.0295 16.373 38.7473 16.2132 38.4559 16.0715C37.2449 15.4685 35.2364 14.75 33.0204 14.75ZM29.7989 17.058C29.3084 16.9662 28.824 16.8447 28.3484 16.694C29.4889 16.1875 31.1889 15.65 33.0199 15.65C34.2884 15.65 35.4879 15.908 36.4799 16.235C35.3174 16.3985 34.0769 16.676 32.8949 17.0175C31.9649 17.2865 30.8779 17.2575 29.7989 17.058ZM37.7789 19.59L37.6564 19.652C34.8529 21.066 31.1349 21.066 28.3314 19.652L28.2154 19.593C24.0044 24.2135 20.7894 32.7485 33.0204 32.7485C45.2504 32.7485 41.9569 24.054 37.7789 19.59ZM32.5004 23.75C32.2352 23.75 31.9808 23.8554 31.7933 24.0429C31.6057 24.2304 31.5004 24.4848 31.5004 24.75C31.5004 25.0152 31.6057 25.2696 31.7933 25.4571C31.9808 25.6446 32.2352 25.75 32.5004 25.75V23.75ZM33.5004 22.75V22.25H32.5004V22.75C31.9699 22.75 31.4612 22.9607 31.0862 23.3358C30.7111 23.7109 30.5004 24.2196 30.5004 24.75C30.5004 25.2804 30.7111 25.7891 31.0862 26.1642C31.4612 26.5393 31.9699 26.75 32.5004 26.75V28.75C32.2936 28.7501 32.0918 28.686 31.9229 28.5666C31.7541 28.4473 31.6263 28.2785 31.5574 28.0835C31.5132 27.9585 31.4212 27.8561 31.3015 27.7989C31.1819 27.7417 31.0444 27.7343 30.9194 27.7785C30.7943 27.8227 30.6919 27.9147 30.6347 28.0343C30.5775 28.154 30.5702 28.2915 30.6144 28.4165C30.7523 28.8065 31.0077 29.1441 31.3455 29.3829C31.6832 29.6218 32.0867 29.75 32.5004 29.75V30.25H33.5004V29.75C34.0308 29.75 34.5395 29.5393 34.9146 29.1642C35.2897 28.7891 35.5004 28.2804 35.5004 27.75C35.5004 27.2196 35.2897 26.7109 34.9146 26.3358C34.5395 25.9607 34.0308 25.75 33.5004 25.75V23.75C33.9354 23.75 34.3059 24.0275 34.4439 24.4165C34.4643 24.4801 34.4974 24.539 34.541 24.5897C34.5846 24.6403 34.638 24.6817 34.6979 24.7114C34.7578 24.7411 34.8231 24.7584 34.8898 24.7625C34.9565 24.7665 35.0234 24.7571 35.0864 24.7348C35.1495 24.7125 35.2074 24.6779 35.2568 24.6328C35.3062 24.5878 35.346 24.5333 35.374 24.4725C35.402 24.4118 35.4175 24.3461 35.4196 24.2793C35.4217 24.2124 35.4104 24.1459 35.3864 24.0835C35.2485 23.6935 34.993 23.3559 34.6553 23.1171C34.3175 22.8782 33.914 22.75 33.5004 22.75ZM33.5004 26.75V28.75C33.7656 28.75 34.0199 28.6446 34.2075 28.4571C34.395 28.2696 34.5004 28.0152 34.5004 27.75C34.5004 27.4848 34.395 27.2304 34.2075 27.0429C34.0199 26.8554 33.7656 26.75 33.5004 26.75Z" fill="white"/>
</g>
<defs>
<clipPath id="clip0_405_368">
<rect width="24" height="24" fill="white" transform="translate(21 12)"/>
</clipPath>
</defs>
</svg>
