<svg width="53" height="59" viewBox="0 0 53 59" fill="none" xmlns="http://www.w3.org/2000/svg">
<circle cx="28" cy="25.25" r="25" fill="#F78E8E"/>
<circle cx="18" cy="40.25" r="18" fill="#4B6D9B"/>
<path d="M36.5 24.75C37.9587 24.75 39.3576 25.3295 40.3891 26.3609C41.4205 27.3924 42 28.7913 42 30.25C42 31.7087 41.4205 33.1076 40.3891 34.1391C39.3576 35.1705 37.9587 35.75 36.5 35.75C35.0413 35.75 33.6424 35.1705 32.6109 34.1391C31.5795 33.1076 31 31.7087 31 30.25C31 28.7913 31.5795 27.3924 32.6109 26.3609C33.6424 25.3295 35.0413 24.75 36.5 24.75ZM32.75 14.75C33.3467 14.75 33.919 14.9871 34.341 15.409C34.7629 15.831 35 16.4033 35 17V23.924C33.493 24.2822 32.1633 25.1666 31.2503 26.418C30.3374 27.6694 29.9011 29.2056 30.02 30.75H27.75C27.56 30.7501 27.3771 30.8222 27.2382 30.952C27.0994 31.0817 27.0149 31.2593 27.002 31.4489C26.989 31.6385 27.0485 31.8259 27.1684 31.9733C27.2883 32.1207 27.4597 32.2171 27.648 32.243L27.75 32.25H30.25L30.312 32.247C30.6151 33.1841 31.1274 34.04 31.81 34.75H25.25C24.6533 34.75 24.081 34.5129 23.659 34.091C23.2371 33.669 23 33.0967 23 32.5V17C23 16.4033 23.2371 15.831 23.659 15.409C24.081 14.9871 24.6533 14.75 25.25 14.75H32.75ZM35.5 26.75C35.3674 26.75 35.2402 26.8027 35.1464 26.8964C35.0527 26.9902 35 27.1174 35 27.25V31.25C35 31.3826 35.0527 31.5098 35.1464 31.6036C35.2402 31.6973 35.3674 31.75 35.5 31.75H38.502C38.6346 31.75 38.7618 31.6973 38.8556 31.6036C38.9493 31.5098 39.002 31.3826 39.002 31.25C39.002 31.1174 38.9493 30.9902 38.8556 30.8964C38.7618 30.8027 38.6346 30.75 38.502 30.75H36V27.25C36 27.1174 35.9473 26.9902 35.8536 26.8964C35.7598 26.8027 35.6326 26.75 35.5 26.75Z" fill="white"/>
</svg>
