<svg width="22" height="23" viewBox="0 0 22 23" fill="none" xmlns="http://www.w3.org/2000/svg">
<path fill-rule="evenodd" clip-rule="evenodd" d="M11.025 0.4375C8.20186 0.4375 5.62936 1.37 4.10748 2.13188C3.96998 2.20063 3.84186 2.26812 3.72248 2.33312C3.48623 2.46187 3.28498 2.58188 3.12498 2.6875L4.85623 5.23625L5.67123 5.56062C8.85623 7.1675 13.1275 7.1675 16.3131 5.56062L17.2381 5.08063L18.8756 2.6875C18.5364 2.46625 18.1836 2.26648 17.8194 2.08937C16.3056 1.33562 13.795 0.4375 11.025 0.4375ZM6.99811 3.3225C6.38506 3.20778 5.77956 3.05583 5.18498 2.8675C6.61061 2.23437 8.73561 1.5625 11.0244 1.5625C12.61 1.5625 14.1094 1.885 15.3494 2.29375C13.8962 2.49813 12.3456 2.845 10.8681 3.27187C9.70561 3.60812 8.34686 3.57188 6.99811 3.3225ZM16.9731 6.4875L16.82 6.565C13.3156 8.3325 8.66811 8.3325 5.16373 6.565L5.01873 6.49125C-0.245019 12.2669 -4.26377 22.9356 11.025 22.9356C26.3125 22.9356 22.1956 12.0675 16.9731 6.4875ZM10.375 11.6875C10.0435 11.6875 9.72552 11.8192 9.4911 12.0536C9.25668 12.288 9.12498 12.606 9.12498 12.9375C9.12498 13.269 9.25668 13.587 9.4911 13.8214C9.72552 14.0558 10.0435 14.1875 10.375 14.1875V11.6875ZM11.625 10.4375V9.8125H10.375V10.4375C9.71194 10.4375 9.07606 10.7009 8.60721 11.1697C8.13837 11.6386 7.87498 12.2745 7.87498 12.9375C7.87498 13.6005 8.13837 14.2364 8.60721 14.7053C9.07606 15.1741 9.71194 15.4375 10.375 15.4375V17.9375C10.1165 17.9376 9.8643 17.8575 9.6532 17.7083C9.4421 17.5591 9.28244 17.3481 9.19623 17.1044C9.14103 16.9481 9.026 16.8201 8.87644 16.7486C8.72688 16.6771 8.55504 16.6679 8.39873 16.7231C8.24242 16.7783 8.11444 16.8934 8.04294 17.0429C7.97144 17.1925 7.96228 17.3643 8.01748 17.5206C8.18988 18.0081 8.50916 18.4302 8.93136 18.7287C9.35356 19.0272 9.85791 19.1875 10.375 19.1875V19.8125H11.625V19.1875C12.288 19.1875 12.9239 18.9241 13.3927 18.4553C13.8616 17.9864 14.125 17.3505 14.125 16.6875C14.125 16.0245 13.8616 15.3886 13.3927 14.9197C12.9239 14.4509 12.288 14.1875 11.625 14.1875V11.6875C12.1687 11.6875 12.6319 12.0344 12.8044 12.5206C12.8299 12.6002 12.8712 12.6738 12.9258 12.7371C12.9803 12.8004 13.047 12.8522 13.1219 12.8893C13.1968 12.9264 13.2783 12.9481 13.3617 12.9531C13.4452 12.9581 13.5287 12.9464 13.6075 12.9185C13.6863 12.8907 13.7587 12.8473 13.8205 12.791C13.8822 12.7347 13.9321 12.6666 13.967 12.5907C14.002 12.5148 14.0214 12.4326 14.024 12.3491C14.0267 12.2656 14.0125 12.1823 13.9825 12.1044C13.8101 11.6169 13.4908 11.1948 13.0686 10.8963C12.6464 10.5978 12.1421 10.4375 11.625 10.4375ZM11.625 15.4375V17.9375C11.9565 17.9375 12.2744 17.8058 12.5089 17.5714C12.7433 17.337 12.875 17.019 12.875 16.6875C12.875 16.356 12.7433 16.038 12.5089 15.8036C12.2744 15.5692 11.9565 15.4375 11.625 15.4375Z" fill="white"/>
</svg>
