<svg width="22" height="24" viewBox="0 0 22 24" fill="none" xmlns="http://www.w3.org/2000/svg">
<path d="M3.75102 0.61L16.875 8.156L14.062 10.969L3.75102 0.61ZM1.03202 0L13.079 12L1.03302 24C0.715652 23.8618 0.447367 23.631 0.263245 23.3379C0.0791231 23.0448 -0.0122666 22.7029 0.0010246 22.357V22.36V1.641L2.46021e-05 1.576C2.46021e-05 0.875 0.420025 0.272 1.02202 0.005L1.03302 0.001L1.03202 0ZM20.954 10.594C21.368 10.901 21.633 11.389 21.633 11.938L21.632 12.003V12C21.6575 12.2683 21.6129 12.5386 21.5027 12.7845C21.3924 13.0304 21.2203 13.2435 21.003 13.403L20.999 13.406L18.186 14.999L15.14 12L18.187 8.953L20.954 10.594ZM3.75102 23.39L14.063 13.031L16.876 15.844L3.75102 23.39Z" fill="white"/>
</svg>
