<svg width="22" height="28" viewBox="0 0 22 28" fill="none" xmlns="http://www.w3.org/2000/svg">
<path d="M21.3975 4.35254L11.4424 0.959961C11.3223 0.918945 11.1611 0.898438 11 0.898438C10.8389 0.898438 10.6777 0.918945 10.5576 0.959961L0.602539 4.35254C0.359375 4.43457 0.160156 4.71582 0.160156 4.97363V19.1064C0.160156 19.3643 0.327149 19.7041 0.529297 19.8652L10.6279 27.7344C10.7305 27.8135 10.8623 27.8545 10.9971 27.8545C11.1318 27.8545 11.2666 27.8135 11.3662 27.7344L21.4648 19.8652C21.667 19.707 21.834 19.3672 21.834 19.1064V4.97363C21.8398 4.71582 21.6406 4.4375 21.3975 4.35254ZM16.3467 9.35645L10.1182 17.9316C10.0744 17.9916 10.0171 18.0403 9.95088 18.0739C9.88471 18.1075 9.81153 18.1251 9.7373 18.1251C9.66308 18.1251 9.5899 18.1075 9.52373 18.0739C9.45755 18.0403 9.40023 17.9916 9.35645 17.9316L5.65332 12.834C5.54199 12.6787 5.65332 12.4619 5.84375 12.4619H7.46094C7.61035 12.4619 7.75391 12.5352 7.8418 12.6553L9.7373 15.2627L14.1582 9.1748C14.2461 9.05469 14.3867 8.98144 14.5391 8.98144H16.1563C16.3467 8.98437 16.458 9.20117 16.3467 9.35645Z" fill="white"/>
</svg>
