<svg width="30" height="28" viewBox="0 0 30 28" fill="none" xmlns="http://www.w3.org/2000/svg">
<path d="M26.7857 0.875H3.21429C1.43973 0.875 0 2.13477 0 3.6875V24.3125C0 25.8652 1.43973 27.125 3.21429 27.125H26.7857C28.5603 27.125 30 25.8652 30 24.3125V3.6875C30 2.13477 28.5603 0.875 26.7857 0.875ZM23.5112 10.1797C23.5246 10.3438 23.5246 10.5137 23.5246 10.6777C23.5246 15.7578 19.1049 21.6113 11.029 21.6113C8.53795 21.6113 6.22768 20.9785 4.28571 19.8887C4.64062 19.9238 4.98214 19.9355 5.34375 19.9355C7.39955 19.9355 9.28795 19.3262 10.7946 18.2949C8.86607 18.2598 7.24554 17.1523 6.68973 15.6289C7.36607 15.7168 7.97545 15.7168 8.67188 15.5586C6.66295 15.2012 5.15625 13.6543 5.15625 11.7852V11.7383C5.73884 12.0254 6.42187 12.2012 7.13839 12.2246C6.536 11.874 6.04218 11.3984 5.70098 10.8401C5.35979 10.2819 5.18185 9.65844 5.18304 9.02539C5.18304 8.31055 5.39732 7.6543 5.77902 7.08594C7.94196 9.41797 11.1897 10.9414 14.8326 11.1055C14.2098 8.49805 16.4397 6.38281 19.1183 6.38281C20.3839 6.38281 21.5223 6.8457 22.3259 7.5957C23.317 7.43164 24.2679 7.10938 25.1116 6.66992C24.7835 7.56055 24.0938 8.31055 23.183 8.78516C24.067 8.70313 24.9241 8.48633 25.7143 8.1875C25.1183 8.95508 24.3683 9.63477 23.5112 10.1797Z" fill="#111111"/>
</svg>
